<?xml version="1.0" encoding="UTF-8"?>
<svg xmlns="http://www.w3.org/2000/svg" version="1.1" width="200" height="200" viewBox="0 0 200 200"><rect x="0" y="0" width="200" height="200" fill="#ffffff"/><g transform="scale(6.061)"><g transform="translate(2,2)"><path fill-rule="evenodd" d="M10 0L10 2L11 2L11 0ZM12 0L12 1L13 1L13 0ZM14 0L14 2L16 2L16 1L20 1L20 2L19 2L19 3L20 3L20 4L18 4L18 3L13 3L13 2L12 2L12 4L16 4L16 5L14 5L14 8L13 8L13 9L12 9L12 7L13 7L13 5L11 5L11 6L10 6L10 4L11 4L11 3L8 3L8 4L9 4L9 5L8 5L8 7L9 7L9 8L6 8L6 9L5 9L5 8L0 8L0 13L1 13L1 14L0 14L0 15L1 15L1 17L0 17L0 21L1 21L1 18L2 18L2 20L3 20L3 21L8 21L8 23L9 23L9 21L8 21L8 20L3 20L3 19L5 19L5 16L4 16L4 15L7 15L7 16L6 16L6 17L7 17L7 18L6 18L6 19L7 19L7 18L8 18L8 19L9 19L9 18L10 18L10 19L11 19L11 17L12 17L12 19L13 19L13 18L14 18L14 20L11 20L11 21L10 21L10 24L8 24L8 29L9 29L9 27L10 27L10 29L11 29L11 26L12 26L12 27L14 27L14 28L13 28L13 29L16 29L16 28L15 28L15 27L19 27L19 28L21 28L21 29L23 29L23 28L24 28L24 29L27 29L27 28L28 28L28 26L29 26L29 23L27 23L27 22L29 22L29 20L28 20L28 19L27 19L27 16L28 16L28 15L27 15L27 14L25 14L25 13L27 13L27 12L28 12L28 11L27 11L27 12L26 12L26 11L25 11L25 13L24 13L24 14L25 14L25 15L24 15L24 16L23 16L23 15L21 15L21 14L20 14L20 13L22 13L22 14L23 14L23 13L22 13L22 12L20 12L20 11L22 11L22 10L23 10L23 9L24 9L24 10L25 10L25 9L26 9L26 8L25 8L25 9L24 9L24 8L23 8L23 9L22 9L22 8L21 8L21 3L20 3L20 2L21 2L21 0L16 0L16 1L15 1L15 0ZM8 1L8 2L9 2L9 1ZM17 4L17 7L16 7L16 6L15 6L15 7L16 7L16 9L13 9L13 10L12 10L12 9L11 9L11 8L10 8L10 9L8 9L8 11L6 11L6 12L5 12L5 13L3 13L3 11L4 11L4 9L2 9L2 10L3 10L3 11L2 11L2 12L1 12L1 13L3 13L3 14L7 14L7 13L6 13L6 12L11 12L11 13L10 13L10 16L8 16L8 17L10 17L10 16L11 16L11 14L13 14L13 15L12 15L12 16L14 16L14 18L16 18L16 19L15 19L15 21L14 21L14 22L13 22L13 21L12 21L12 22L11 22L11 24L10 24L10 25L9 25L9 26L11 26L11 25L12 25L12 26L13 26L13 25L12 25L12 24L15 24L15 22L16 22L16 21L17 21L17 22L20 22L20 21L19 21L19 19L21 19L21 18L22 18L22 17L23 17L23 18L24 18L24 17L25 17L25 19L22 19L22 20L25 20L25 21L26 21L26 20L27 20L27 19L26 19L26 17L25 17L25 16L27 16L27 15L25 15L25 16L24 16L24 17L23 17L23 16L22 16L22 17L20 17L20 16L18 16L18 15L20 15L20 14L19 14L19 13L20 13L20 12L18 12L18 11L17 11L17 10L19 10L19 11L20 11L20 10L22 10L22 9L21 9L21 8L20 8L20 10L19 10L19 7L20 7L20 5L19 5L19 7L18 7L18 4ZM9 6L9 7L10 7L10 6ZM11 6L11 7L12 7L12 6ZM17 8L17 9L16 9L16 10L15 10L15 11L14 11L14 10L13 10L13 11L12 11L12 13L13 13L13 14L14 14L14 13L15 13L15 12L16 12L16 10L17 10L17 9L18 9L18 8ZM27 8L27 9L28 9L28 10L29 10L29 9L28 9L28 8ZM6 9L6 10L7 10L7 9ZM10 9L10 11L11 11L11 9ZM13 11L13 12L14 12L14 11ZM23 11L23 12L24 12L24 11ZM17 12L17 13L16 13L16 14L15 14L15 15L16 15L16 16L17 16L17 17L18 17L18 16L17 16L17 13L18 13L18 12ZM28 13L28 14L29 14L29 13ZM8 14L8 15L9 15L9 14ZM2 15L2 18L3 18L3 17L4 17L4 16L3 16L3 15ZM19 17L19 18L18 18L18 19L19 19L19 18L20 18L20 17ZM28 17L28 18L29 18L29 17ZM16 19L16 20L17 20L17 21L18 21L18 20L17 20L17 19ZM21 21L21 24L24 24L24 21ZM22 22L22 23L23 23L23 22ZM16 23L16 25L14 25L14 26L16 26L16 25L17 25L17 26L19 26L19 27L21 27L21 28L22 28L22 27L21 27L21 25L20 25L20 23L19 23L19 24L18 24L18 23ZM25 23L25 25L24 25L24 26L23 26L23 25L22 25L22 26L23 26L23 27L24 27L24 26L25 26L25 25L26 25L26 24L27 24L27 25L28 25L28 24L27 24L27 23ZM17 24L17 25L18 25L18 24ZM19 25L19 26L20 26L20 25ZM25 27L25 28L27 28L27 27ZM17 28L17 29L18 29L18 28ZM0 0L0 7L7 7L7 0ZM1 1L1 6L6 6L6 1ZM2 2L2 5L5 5L5 2ZM22 0L22 7L29 7L29 0ZM23 1L23 6L28 6L28 1ZM24 2L24 5L27 5L27 2ZM0 22L0 29L7 29L7 22ZM1 23L1 28L6 28L6 23ZM2 24L2 27L5 27L5 24Z" fill="#000000"/></g></g></svg>
