<?xml version="1.0" encoding="UTF-8"?>
<svg xmlns="http://www.w3.org/2000/svg" version="1.1" width="200" height="200" viewBox="0 0 200 200"><rect x="0" y="0" width="200" height="200" fill="#ffffff"/><g transform="scale(6.061)"><g transform="translate(2,2)"><path fill-rule="evenodd" d="M9 0L9 1L11 1L11 2L9 2L9 3L8 3L8 5L9 5L9 6L8 6L8 7L9 7L9 9L8 9L8 8L5 8L5 10L3 10L3 9L2 9L2 8L0 8L0 12L2 12L2 11L5 11L5 10L6 10L6 11L7 11L7 10L9 10L9 11L10 11L10 12L9 12L9 13L10 13L10 14L9 14L9 16L6 16L6 15L8 15L8 14L6 14L6 13L7 13L7 12L6 12L6 13L5 13L5 14L6 14L6 15L4 15L4 14L2 14L2 13L1 13L1 14L0 14L0 21L1 21L1 19L2 19L2 21L3 21L3 20L5 20L5 19L2 19L2 18L1 18L1 16L2 16L2 17L4 17L4 18L6 18L6 19L7 19L7 20L6 20L6 21L8 21L8 24L9 24L9 26L10 26L10 28L11 28L11 29L16 29L16 28L17 28L17 29L18 29L18 28L17 28L17 27L19 27L19 28L20 28L20 27L19 27L19 26L20 26L20 25L23 25L23 26L21 26L21 29L23 29L23 28L24 28L24 29L27 29L27 27L28 27L28 28L29 28L29 27L28 27L28 26L29 26L29 24L28 24L28 23L27 23L27 22L26 22L26 21L29 21L29 20L26 20L26 21L25 21L25 20L21 20L21 19L22 19L22 18L23 18L23 17L24 17L24 19L26 19L26 18L28 18L28 19L29 19L29 17L27 17L27 14L29 14L29 12L28 12L28 13L27 13L27 14L25 14L25 13L24 13L24 11L23 11L23 12L22 12L22 9L20 9L20 8L21 8L21 4L18 4L18 3L17 3L17 4L16 4L16 7L17 7L17 4L18 4L18 7L19 7L19 10L17 10L17 11L18 11L18 12L19 12L19 14L20 14L20 15L18 15L18 16L17 16L17 17L18 17L18 16L20 16L20 17L19 17L19 18L16 18L16 17L15 17L15 16L16 16L16 15L17 15L17 12L16 12L16 13L15 13L15 11L16 11L16 8L13 8L13 6L14 6L14 7L15 7L15 5L14 5L14 3L15 3L15 2L14 2L14 3L12 3L12 2L13 2L13 1L15 1L15 0L13 0L13 1L12 1L12 0ZM18 0L18 1L19 1L19 0ZM16 1L16 2L17 2L17 1ZM20 1L20 2L19 2L19 3L20 3L20 2L21 2L21 1ZM9 3L9 5L10 5L10 3ZM11 4L11 7L10 7L10 6L9 6L9 7L10 7L10 8L11 8L11 9L12 9L12 10L10 10L10 9L9 9L9 10L10 10L10 11L12 11L12 12L11 12L11 13L12 13L12 14L10 14L10 15L11 15L11 16L12 16L12 14L13 14L13 16L15 16L15 15L14 15L14 14L15 14L15 13L14 13L14 11L15 11L15 9L13 9L13 8L12 8L12 4ZM19 5L19 7L20 7L20 5ZM17 8L17 9L18 9L18 8ZM24 8L24 10L25 10L25 9L26 9L26 10L28 10L28 9L26 9L26 8ZM1 9L1 10L2 10L2 9ZM6 9L6 10L7 10L7 9ZM13 10L13 11L14 11L14 10ZM19 10L19 11L20 11L20 14L21 14L21 15L20 15L20 16L22 16L22 17L23 17L23 16L24 16L24 17L25 17L25 18L26 18L26 17L25 17L25 16L26 16L26 15L25 15L25 14L24 14L24 13L23 13L23 14L21 14L21 11L20 11L20 10ZM25 11L25 12L26 12L26 11ZM3 12L3 13L4 13L4 12ZM12 12L12 13L13 13L13 14L14 14L14 13L13 13L13 12ZM1 14L1 15L2 15L2 14ZM3 15L3 16L4 16L4 17L5 17L5 16L4 16L4 15ZM24 15L24 16L25 16L25 15ZM28 15L28 16L29 16L29 15ZM6 17L6 18L7 18L7 19L8 19L8 20L10 20L10 19L11 19L11 18L10 18L10 17L9 17L9 18L10 18L10 19L8 19L8 17ZM12 17L12 19L13 19L13 20L11 20L11 21L10 21L10 22L11 22L11 25L12 25L12 24L13 24L13 25L14 25L14 26L11 26L11 27L12 27L12 28L15 28L15 27L14 27L14 26L15 26L15 24L17 24L17 26L19 26L19 24L20 24L20 23L19 23L19 24L18 24L18 23L15 23L15 24L14 24L14 21L13 21L13 20L15 20L15 21L16 21L16 22L20 22L20 21L19 21L19 19L17 19L17 20L15 20L15 17ZM20 17L20 18L21 18L21 17ZM13 18L13 19L14 19L14 18ZM17 20L17 21L18 21L18 20ZM11 21L11 22L12 22L12 21ZM21 21L21 24L24 24L24 21ZM22 22L22 23L23 23L23 22ZM25 23L25 24L26 24L26 25L27 25L27 23ZM24 25L24 26L23 26L23 27L22 27L22 28L23 28L23 27L24 27L24 26L25 26L25 25ZM8 27L8 29L9 29L9 27ZM25 27L25 28L26 28L26 27ZM0 0L0 7L7 7L7 0ZM1 1L1 6L6 6L6 1ZM2 2L2 5L5 5L5 2ZM22 0L22 7L29 7L29 0ZM23 1L23 6L28 6L28 1ZM24 2L24 5L27 5L27 2ZM0 22L0 29L7 29L7 22ZM1 23L1 28L6 28L6 23ZM2 24L2 27L5 27L5 24Z" fill="#000000"/></g></g></svg>
