<?xml version="1.0" encoding="UTF-8"?>
<svg xmlns="http://www.w3.org/2000/svg" version="1.1" width="200" height="200" viewBox="0 0 200 200"><rect x="0" y="0" width="200" height="200" fill="#ffffff"/><g transform="scale(6.061)"><g transform="translate(2,2)"><path fill-rule="evenodd" d="M9 0L9 1L8 1L8 2L9 2L9 3L8 3L8 4L10 4L10 7L11 7L11 4L12 4L12 5L14 5L14 8L13 8L13 6L12 6L12 9L16 9L16 10L15 10L15 11L14 11L14 10L11 10L11 11L10 11L10 9L11 9L11 8L6 8L6 9L7 9L7 10L5 10L5 8L0 8L0 9L1 9L1 10L3 10L3 11L2 11L2 12L1 12L1 11L0 11L0 12L1 12L1 13L0 13L0 16L3 16L3 17L5 17L5 18L4 18L4 19L3 19L3 18L2 18L2 21L3 21L3 20L4 20L4 21L8 21L8 23L9 23L9 22L10 22L10 23L11 23L11 22L12 22L12 21L11 21L11 20L13 20L13 21L15 21L15 20L13 20L13 19L11 19L11 18L12 18L12 17L11 17L11 16L10 16L10 17L11 17L11 18L10 18L10 19L8 19L8 17L7 17L7 16L9 16L9 15L11 15L11 13L12 13L12 15L14 15L14 16L13 16L13 17L15 17L15 15L16 15L16 16L17 16L17 17L18 17L18 16L20 16L20 17L19 17L19 18L18 18L18 19L19 19L19 21L20 21L20 22L17 22L17 21L18 21L18 20L17 20L17 19L16 19L16 18L14 18L14 19L16 19L16 20L17 20L17 21L16 21L16 22L14 22L14 24L12 24L12 25L11 25L11 24L10 24L10 25L9 25L9 24L8 24L8 29L9 29L9 28L10 28L10 29L11 29L11 28L13 28L13 29L16 29L16 28L15 28L15 27L19 27L19 28L21 28L21 29L23 29L23 28L24 28L24 29L27 29L27 28L28 28L28 26L29 26L29 23L28 23L28 25L27 25L27 24L26 24L26 25L25 25L25 23L27 23L27 22L29 22L29 20L28 20L28 19L27 19L27 16L28 16L28 15L27 15L27 14L25 14L25 13L27 13L27 12L28 12L28 11L27 11L27 12L26 12L26 11L25 11L25 13L24 13L24 14L25 14L25 15L24 15L24 16L23 16L23 15L21 15L21 14L20 14L20 13L22 13L22 14L23 14L23 13L22 13L22 12L20 12L20 11L22 11L22 10L23 10L23 9L24 9L24 10L25 10L25 9L26 9L26 8L25 8L25 9L24 9L24 8L23 8L23 9L22 9L22 8L21 8L21 3L20 3L20 2L21 2L21 0L16 0L16 1L14 1L14 3L13 3L13 4L12 4L12 2L13 2L13 1L11 1L11 2L10 2L10 0ZM16 1L16 2L15 2L15 3L14 3L14 5L16 5L16 4L17 4L17 7L16 7L16 6L15 6L15 7L16 7L16 9L17 9L17 10L16 10L16 11L15 11L15 13L14 13L14 14L16 14L16 12L18 12L18 13L17 13L17 16L18 16L18 15L20 15L20 14L19 14L19 13L20 13L20 12L18 12L18 11L17 11L17 10L19 10L19 11L20 11L20 10L22 10L22 9L21 9L21 8L20 8L20 10L19 10L19 7L20 7L20 5L19 5L19 7L18 7L18 4L20 4L20 3L19 3L19 2L20 2L20 1ZM16 2L16 3L17 3L17 4L18 4L18 3L17 3L17 2ZM10 3L10 4L11 4L11 3ZM8 5L8 7L9 7L9 5ZM17 8L17 9L18 9L18 8ZM27 8L27 9L28 9L28 10L29 10L29 9L28 9L28 8ZM4 11L4 12L5 12L5 13L6 13L6 14L7 14L7 15L5 15L5 14L4 14L4 13L3 13L3 14L4 14L4 15L3 15L3 16L4 16L4 15L5 15L5 17L6 17L6 18L7 18L7 17L6 17L6 16L7 16L7 15L8 15L8 14L10 14L10 13L11 13L11 12L10 12L10 13L9 13L9 11ZM12 11L12 12L14 12L14 11ZM23 11L23 12L24 12L24 11ZM6 12L6 13L7 13L7 12ZM1 13L1 15L2 15L2 13ZM28 13L28 14L29 14L29 13ZM25 15L25 16L24 16L24 17L23 17L23 16L22 16L22 17L20 17L20 18L19 18L19 19L21 19L21 18L22 18L22 17L23 17L23 18L24 18L24 17L25 17L25 19L22 19L22 20L25 20L25 21L26 21L26 20L27 20L27 19L26 19L26 17L25 17L25 16L27 16L27 15ZM0 17L0 21L1 21L1 17ZM28 17L28 18L29 18L29 17ZM4 19L4 20L8 20L8 19ZM21 21L21 24L24 24L24 21ZM22 22L22 23L23 23L23 22ZM16 23L16 25L15 25L15 24L14 24L14 26L13 26L13 25L12 25L12 26L11 26L11 27L10 27L10 28L11 28L11 27L12 27L12 26L13 26L13 28L14 28L14 26L16 26L16 25L17 25L17 26L19 26L19 27L21 27L21 28L22 28L22 27L21 27L21 25L20 25L20 23L19 23L19 24L18 24L18 23ZM17 24L17 25L18 25L18 24ZM19 25L19 26L20 26L20 25ZM22 25L22 26L23 26L23 27L24 27L24 26L25 26L25 25L24 25L24 26L23 26L23 25ZM25 27L25 28L27 28L27 27ZM17 28L17 29L18 29L18 28ZM0 0L0 7L7 7L7 0ZM1 1L1 6L6 6L6 1ZM2 2L2 5L5 5L5 2ZM22 0L22 7L29 7L29 0ZM23 1L23 6L28 6L28 1ZM24 2L24 5L27 5L27 2ZM0 22L0 29L7 29L7 22ZM1 23L1 28L6 28L6 23ZM2 24L2 27L5 27L5 24Z" fill="#000000"/></g></g></svg>
